<svg xmlns="http://www.w3.org/2000/svg" xmlns:xlink="http://www.w3.org/1999/xlink" width="1920" zoomAndPan="magnify" viewBox="0 0 1440 809.999993" height="1080" preserveAspectRatio="xMidYMid meet" version="1.0"><defs><g/><clipPath id="03a77eb4a0"><path d="M 0.882812 60.671875 L 491.582031 60.671875 L 491.582031 531.613281 L 0.882812 531.613281 Z M 0.882812 60.671875 " clip-rule="nonzero"/></clipPath><clipPath id="e63026a36c"><path d="M 210.394531 98.226562 L 482.417969 98.226562 L 482.417969 436.117188 L 210.394531 436.117188 Z M 210.394531 98.226562 " clip-rule="nonzero"/></clipPath><clipPath id="b41da28f66"><path d="M 0.421875 0.390625 L 272.152344 0.390625 L 272.152344 338.117188 L 0.421875 338.117188 Z M 0.421875 0.390625 " clip-rule="nonzero"/></clipPath><clipPath id="a7abad7791"><rect x="0" width="273" y="0" height="339"/></clipPath><clipPath id="daf009a03d"><path d="M 43 0.0390625 L 346 0.0390625 L 346 534 L 43 534 Z M 43 0.0390625 " clip-rule="nonzero"/></clipPath><clipPath id="861e53b04f"><rect x="0" width="303" y="0" height="534"/></clipPath><clipPath id="f1e11acb05"><path d="M 17 57 L 289 57 L 289 535.71875 L 17 535.71875 Z M 17 57 " clip-rule="nonzero"/></clipPath><clipPath id="64a59cc332"><rect x="0" width="272" y="0" height="479"/></clipPath><clipPath id="71312f26dc"><rect x="0" width="265" y="0" height="66"/></clipPath><clipPath id="98191f48f0"><rect x="0" width="492" y="0" height="536"/></clipPath></defs><g transform="matrix(1, 0, 0, 1, 473, 137)"><g clip-path="url(#98191f48f0)"><g clip-path="url(#03a77eb4a0)"><path fill="#ffffff" d="M 0.882812 60.671875 L 491.582031 60.671875 L 491.582031 531.613281 L 0.882812 531.613281 Z M 0.882812 60.671875 " fill-opacity="1" fill-rule="nonzero"/></g><g clip-path="url(#e63026a36c)"><g transform="matrix(1, 0, 0, 1, 210, 98)"><g clip-path="url(#a7abad7791)"><g clip-path="url(#b41da28f66)"><path fill="#000000" d="M 4.019531 320.9375 C 24.625 320.9375 45.234375 320.9375 65.910156 320.9375 C 76.992188 332.289062 92.667969 338.976562 109.625 337.832031 C 114.425781 337.5625 114.425781 330.128906 109.625 330.398438 C 83.683594 332.085938 60.300781 313.371094 57.535156 287.15625 C 56.992188 282.425781 49.558594 282.359375 50.101562 287.15625 C 51.179688 296.886719 54.558594 305.804688 59.828125 313.441406 C 41.25 313.441406 22.667969 313.441406 4.085938 313.441406 C -0.710938 313.507812 -0.710938 320.9375 4.019531 320.9375 Z M 139.019531 330.332031 C 145.4375 331.007812 152.261719 330.398438 158.816406 330.398438 C 179.558594 330.398438 200.371094 330.601562 221.183594 330.398438 C 242.328125 330.195312 250.371094 303.4375 231.113281 292.761719 C 230.101562 292.222656 229.628906 291.410156 229.355469 290.53125 C 225.710938 290.734375 221.925781 290.734375 218.207031 290.734375 C 213.414062 290.734375 213.414062 283.304688 218.207031 283.304688 C 228.613281 283.304688 239.289062 284.519531 247.332031 276.546875 C 259.628906 264.382812 253.816406 243.980469 238.140625 238.371094 C 237.464844 238.167969 236.992188 237.765625 236.519531 237.289062 C 234.019531 237.289062 231.519531 237.222656 228.953125 237.222656 C 220.304688 237.222656 211.722656 237.222656 203.074219 237.222656 C 198.273438 237.222656 198.273438 229.789062 203.074219 229.789062 C 215.640625 229.789062 228.34375 230.195312 240.976562 229.789062 C 252.53125 229.382812 262.597656 222.085938 264.425781 210.128906 C 266.519531 196.007812 255.574219 184.113281 241.652344 183.640625 C 240.84375 183.640625 240.167969 183.371094 239.625 182.964844 C 237.800781 183.371094 235.980469 183.574219 234.085938 183.640625 C 224.15625 183.910156 214.152344 183.640625 204.222656 183.640625 C 199.421875 183.640625 199.421875 176.207031 204.222656 176.207031 C 221.183594 176.207031 248.210938 181.34375 255.777344 161.273438 C 261.519531 146.007812 249.964844 130.804688 234.15625 130.195312 C 229.761719 130.058594 225.238281 130.195312 220.84375 130.195312 C 201.113281 130.195312 181.519531 130.195312 161.789062 130.195312 C 147.332031 130.195312 126.519531 126.476562 117.195312 140.53125 C 106.859375 156.074219 118.816406 175.53125 136.519531 176.207031 C 144.964844 176.613281 153.476562 176.207031 161.921875 176.207031 C 166.722656 176.207031 166.722656 183.640625 161.921875 183.640625 C 153.140625 183.640625 144.15625 184.046875 135.371094 183.640625 C 134.625 183.640625 133.886719 183.507812 133.074219 183.4375 C 132.667969 183.574219 132.332031 183.640625 131.859375 183.640625 C 104.492188 184.65625 100.707031 225.265625 128.480469 229.453125 C 138.949219 231.074219 150.234375 229.722656 160.84375 229.722656 C 165.640625 229.722656 165.640625 237.152344 160.84375 237.152344 C 152.9375 237.152344 143.953125 238.03125 135.238281 237.5625 C 118.277344 241.546875 109.898438 262.289062 122.535156 275.871094 C 129.492188 283.371094 138.476562 283.304688 147.800781 283.304688 C 164.492188 283.304688 181.179688 283.304688 197.871094 283.304688 C 202.667969 283.304688 202.667969 290.734375 197.871094 290.734375 C 178.882812 290.734375 159.832031 291.277344 140.84375 290.734375 C 116.925781 292.222656 114.558594 327.695312 139.019531 330.332031 Z M 126.925781 287.964844 C 118.007812 283.84375 111.179688 275.941406 109.421875 265.464844 C 107.464844 253.4375 112.9375 242.222656 122.261719 235.667969 C 118.140625 234.316406 114.355469 232.289062 111.113281 229.25 C 94.15625 213.234375 101.722656 187.558594 120.371094 179.179688 C 112.667969 174.316406 107.128906 166.140625 106.113281 156.410156 C 104.628906 141.480469 114.828125 127.085938 129.558594 123.707031 C 135.84375 122.289062 142.804688 122.964844 149.289062 122.964844 C 154.492188 122.964844 159.832031 122.964844 165.03125 122.964844 C 165.101562 122.898438 165.101562 122.761719 165.167969 122.695312 C 182.667969 99.382812 190.371094 70.394531 186.316406 41.34375 C 184.832031 30.332031 182.804688 17.894531 172.734375 11.476562 C 160.570312 3.777344 143.953125 8.84375 138.003906 21.882812 C 134.832031 28.777344 136.382812 37.222656 135.773438 44.652344 C 135.167969 51.074219 134.085938 57.558594 132.398438 63.777344 C 129.832031 72.964844 125.707031 81.746094 120.101562 89.453125 C 105.777344 109.179688 81.183594 116.277344 66.789062 136.074219 C 58.476562 147.492188 53.75 161.613281 42.53125 170.871094 C 31.585938 179.789062 17.867188 183.507812 4.019531 183.980469 C -0.777344 184.113281 -0.777344 176.679688 4.019531 176.546875 C 20.167969 176.003906 36.179688 170.195312 45.640625 156.480469 C 54.085938 144.25 59.695312 131.007812 70.4375 120.464844 C 78.882812 112.222656 89.152344 106.816406 98.816406 100.058594 C 108.746094 93.101562 116.316406 83.640625 121.316406 72.558594 C 127.667969 58.4375 128.140625 44.113281 128.816406 28.980469 C 129.355469 17.355469 137.53125 7.019531 148.140625 2.695312 C 158.34375 -1.496094 170.101562 0.125 178.953125 6.816406 C 188.140625 13.777344 190.84375 24.046875 192.804688 34.789062 C 198.480469 65.667969 191.992188 97.355469 174.085938 123.03125 C 189.222656 123.03125 204.492188 123.03125 219.628906 123.03125 C 225.710938 123.03125 231.992188 122.492188 238.074219 123.300781 C 253.003906 125.261719 264.625 138.371094 264.625 153.503906 C 264.625 163.976562 259.289062 172.898438 251.386719 178.371094 C 261.183594 181.683594 268.882812 189.519531 271.382812 200.195312 C 274.425781 213.234375 268.207031 227.152344 256.519531 233.710938 C 254.152344 234.992188 251.652344 235.9375 249.15625 236.546875 C 260.710938 245.464844 265.300781 261.546875 257.667969 275.535156 C 253.140625 283.777344 246.519531 287.695312 239.019531 289.453125 C 253.207031 300.871094 253.410156 324.046875 236.519531 334.113281 C 227.058594 339.792969 214.152344 337.964844 203.546875 337.964844 C 187.597656 337.964844 171.71875 337.964844 155.707031 337.964844 C 144.019531 337.964844 131.722656 339.316406 122.398438 330.667969 C 108.34375 317.425781 113.074219 297.019531 126.925781 287.964844 " fill-opacity="1" fill-rule="nonzero"/></g></g></g></g><g clip-path="url(#daf009a03d)"><g transform="matrix(1, 0, 0, 1, 43, 0.000000000000056843)"><g clip-path="url(#861e53b04f)"><g fill="#0a714e" fill-opacity="1"><g transform="translate(1.454485, 421.666466)"><g><path d="M 288.453125 -269.984375 L 192.296875 -269.984375 L 145.5625 0 L 80.34375 0 L 127.09375 -269.984375 L 32.046875 -269.984375 L 41.625 -324.0625 L 298.03125 -324.0625 Z M 288.453125 -269.984375 "/></g></g></g></g></g></g><g clip-path="url(#f1e11acb05)"><g transform="matrix(1, 0, 0, 1, 17, 57)"><g clip-path="url(#64a59cc332)"><g fill="#7ed957" fill-opacity="1"><g transform="translate(2.138323, 378.454387)"><g><path d="M 258.21875 -241.6875 L 172.140625 -241.6875 L 130.296875 0 L 71.921875 0 L 113.765625 -241.6875 L 28.6875 -241.6875 L 37.265625 -290.09375 L 266.78125 -290.09375 Z M 258.21875 -241.6875 "/></g></g></g></g></g></g><g transform="matrix(1, 0, 0, 1, 108, 465)"><g clip-path="url(#71312f26dc)"><g fill="#000000" fill-opacity="1"><g transform="translate(1.283419, 51.171835)"><g><path d="M 34.140625 -35.140625 L 21.875 -35.140625 L 15.78125 0 L 10.71875 0 L 16.8125 -35.140625 L 4.546875 -35.140625 L 5.3125 -39.421875 L 34.90625 -39.421875 Z M 34.140625 -35.140625 "/></g></g></g><g fill="#000000" fill-opacity="1"><g transform="translate(36.578046, 51.171835)"><g><path d="M 16.0625 0.546875 C 13.550781 0.484375 11.367188 -0.117188 9.515625 -1.265625 C 7.660156 -2.421875 6.203125 -4.125 5.140625 -6.375 C 4.078125 -8.625 3.492188 -11.144531 3.390625 -13.9375 C 3.273438 -16.125 3.515625 -18.820312 4.109375 -22.03125 C 4.710938 -25.25 5.742188 -28.148438 7.203125 -30.734375 C 8.660156 -33.316406 10.4375 -35.382812 12.53125 -36.9375 C 15.363281 -39.03125 18.597656 -40.039062 22.234375 -39.96875 C 26.078125 -39.894531 29.109375 -38.5625 31.328125 -35.96875 C 33.546875 -33.375 34.738281 -29.867188 34.90625 -25.453125 C 34.976562 -23.554688 34.78125 -21.144531 34.3125 -18.21875 C 33.851562 -15.300781 33.03125 -12.585938 31.84375 -10.078125 C 30.664062 -7.566406 29.164062 -5.460938 27.34375 -3.765625 C 24.164062 -0.804688 20.40625 0.628906 16.0625 0.546875 Z M 29.890625 -24.203125 C 30.003906 -27.765625 29.382812 -30.523438 28.03125 -32.484375 C 26.675781 -34.441406 24.660156 -35.457031 21.984375 -35.53125 C 19.566406 -35.601562 17.40625 -34.953125 15.5 -33.578125 C 13.59375 -32.203125 12.03125 -30.144531 10.8125 -27.40625 C 9.59375 -24.675781 8.820312 -21.21875 8.5 -17.03125 L 8.421875 -15.265625 C 8.316406 -11.734375 8.945312 -8.960938 10.3125 -6.953125 C 11.6875 -4.953125 13.679688 -3.914062 16.296875 -3.84375 C 19.710938 -3.75 22.539062 -4.976562 24.78125 -7.53125 C 27.03125 -10.09375 28.523438 -13.679688 29.265625 -18.296875 C 29.628906 -20.578125 29.835938 -22.546875 29.890625 -24.203125 Z M 29.890625 -24.203125 "/></g></g></g><g fill="#000000" fill-opacity="1"><g transform="translate(76.773352, 51.171835)"><g><path d="M 9.375 -15.4375 L 6.6875 0 L 1.59375 0 L 8.453125 -39.421875 L 21.609375 -39.390625 C 25.671875 -39.390625 28.800781 -38.3125 31 -36.15625 C 33.207031 -34 34.15625 -31.132812 33.84375 -27.5625 C 33.519531 -23.789062 32.015625 -20.820312 29.328125 -18.65625 C 26.648438 -16.488281 23.117188 -15.40625 18.734375 -15.40625 Z M 10.09375 -19.6875 L 18.875 -19.65625 C 21.632812 -19.65625 23.898438 -20.347656 25.671875 -21.734375 C 27.441406 -23.128906 28.476562 -25.0625 28.78125 -27.53125 C 29.070312 -29.757812 28.613281 -31.5625 27.40625 -32.9375 C 26.195312 -34.320312 24.4375 -35.050781 22.125 -35.125 L 12.78125 -35.140625 Z M 10.09375 -19.6875 "/></g></g></g><g fill="#000000" fill-opacity="1"><g transform="translate(113.909117, 51.171835)"><g/></g></g><g fill="#000000" fill-opacity="1"><g transform="translate(130.440373, 51.171835)"><g><path d="M 31.03125 0 L 26.109375 0 L 12.015625 -30.59375 L 6.71875 0 L 1.59375 0 L 8.453125 -39.421875 L 13.375 -39.421875 L 27.484375 -8.6875 L 32.8125 -39.421875 L 37.875 -39.421875 Z M 31.03125 0 "/></g></g></g><g fill="#000000" fill-opacity="1"><g transform="translate(171.989456, 51.171835)"><g><path d="M 16.0625 0.546875 C 13.550781 0.484375 11.367188 -0.117188 9.515625 -1.265625 C 7.660156 -2.421875 6.203125 -4.125 5.140625 -6.375 C 4.078125 -8.625 3.492188 -11.144531 3.390625 -13.9375 C 3.273438 -16.125 3.515625 -18.820312 4.109375 -22.03125 C 4.710938 -25.25 5.742188 -28.148438 7.203125 -30.734375 C 8.660156 -33.316406 10.4375 -35.382812 12.53125 -36.9375 C 15.363281 -39.03125 18.597656 -40.039062 22.234375 -39.96875 C 26.078125 -39.894531 29.109375 -38.5625 31.328125 -35.96875 C 33.546875 -33.375 34.738281 -29.867188 34.90625 -25.453125 C 34.976562 -23.554688 34.78125 -21.144531 34.3125 -18.21875 C 33.851562 -15.300781 33.03125 -12.585938 31.84375 -10.078125 C 30.664062 -7.566406 29.164062 -5.460938 27.34375 -3.765625 C 24.164062 -0.804688 20.40625 0.628906 16.0625 0.546875 Z M 29.890625 -24.203125 C 30.003906 -27.765625 29.382812 -30.523438 28.03125 -32.484375 C 26.675781 -34.441406 24.660156 -35.457031 21.984375 -35.53125 C 19.566406 -35.601562 17.40625 -34.953125 15.5 -33.578125 C 13.59375 -32.203125 12.03125 -30.144531 10.8125 -27.40625 C 9.59375 -24.675781 8.820312 -21.21875 8.5 -17.03125 L 8.421875 -15.265625 C 8.316406 -11.734375 8.945312 -8.960938 10.3125 -6.953125 C 11.6875 -4.953125 13.679688 -3.914062 16.296875 -3.84375 C 19.710938 -3.75 22.539062 -4.976562 24.78125 -7.53125 C 27.03125 -10.09375 28.523438 -13.679688 29.265625 -18.296875 C 29.628906 -20.578125 29.835938 -22.546875 29.890625 -24.203125 Z M 29.890625 -24.203125 "/></g></g></g><g fill="#000000" fill-opacity="1"><g transform="translate(212.184762, 51.171835)"><g><path d="M 12.078125 -12.15625 L 11.96875 -7.390625 L 13.8125 -12.046875 L 25.59375 -39.421875 L 29.890625 -39.421875 L 33 -11.703125 L 33.28125 -7.203125 L 34.984375 -12.640625 L 45.0625 -39.421875 L 50.28125 -39.421875 L 34.84375 0 L 30.21875 0 L 26.8125 -28.9375 L 26.703125 -31.65625 L 25.5625 -28.515625 L 13 0 L 8.359375 0 L 5.28125 -39.421875 L 10.234375 -39.421875 Z M 12.078125 -12.15625 "/></g></g></g></g></g></g></g></svg>